<svg xmlns="http://www.w3.org/2000/svg" xmlns:xlink="http://www.w3.org/1999/xlink" viewBox="0 0 408.74 175.87"><defs><style>.cls-1,.cls-3,.cls-4,.cls-6{fill:#1d1d1b;}.cls-1{stroke:#1d1d1b;stroke-miterlimit:10;}.cls-2{fill:#f6f6f6;}.cls-3{font-size:94.08px;}.cls-3,.cls-4{font-family:MicrosoftPhagsPa-Bold, Microsoft PhagsPa;font-weight:700;}.cls-4{font-size:66.5px;}.cls-5{fill:url(#Degradado_sin_nombre_32);}</style><linearGradient id="Degradado_sin_nombre_32" x1="103.06" y1="112.52" x2="103.06" y2="44.51" gradientUnits="userSpaceOnUse"><stop offset="0" stop-color="#ffed00" stop-opacity="0.88"/><stop offset="0.15" stop-color="#fee802" stop-opacity="0.87"/><stop offset="0.36" stop-color="#fcd908" stop-opacity="0.84"/><stop offset="0.6" stop-color="#f8c212" stop-opacity="0.8"/><stop offset="0.69" stop-color="#f5ae14" stop-opacity="0.83"/><stop offset="0.87" stop-color="#ef7918" stop-opacity="0.89"/><stop offset="1" stop-color="#e94e1b" stop-opacity="0.95"/></linearGradient></defs><g id="Capa_1" data-name="Capa 1"><ellipse class="cls-1" cx="51.83" cy="53.81" rx="47.61" ry="46.21"/><path class="cls-2" d="M138.1,78.51c0,18.64-15.69,33.74-35,33.74a35.56,35.56,0,0,1-26.18-11.31A32.93,32.93,0,0,1,68,78.51c0-18.64,15.69-33.74,35-33.74S138.1,59.87,138.1,78.51Z" transform="translate(-38.66 -28.43)"/><text class="cls-3" transform="translate(105.45 79.98)">svaldo</text><text class="cls-4" transform="translate(0 159.47)">Photography</text></g><g id="Capa_2" data-name="Capa 2"><path class="cls-5" d="M138.1,78.52c0,18.78-15.69,34-35,34a35.41,35.41,0,0,1-26.18-11.4A33.31,33.31,0,0,1,68,78.52c0-18.78,15.69-34,35-34S138.1,59.74,138.1,78.52Z" transform="translate(-38.66 -28.43)"/><polygon class="cls-6" points="52.62 76.05 42.15 83.46 70.17 87.2 58.23 71.09 52.62 76.05"/><polyline class="cls-6" points="58.39 75.36 66.81 66.42 79.53 83.81 64.94 85.47"/></g><g id="Capa_4" data-name="Capa 4"><path class="cls-6" d="M115.77,106.53v.83a1.07,1.07,0,0,0,1.12,1V110h2.7v-1.84a1.67,1.67,0,0,0,1-1.51v-1.16a.7.7,0,0,0-1.39,0v.92H119v-.92a.81.81,0,0,1,.57-.77v-.65a1.34,1.34,0,0,0-1.36-1.28,1.31,1.31,0,0,0-1.35,1.27v3.27h-.2V106a.65.65,0,0,0-.31-.08A.59.59,0,0,0,115.77,106.53Z" transform="translate(-38.66 -28.43)"/><path class="cls-6" d="M83.55,104.69l0,.82a1.08,1.08,0,0,0,1.07,1l-.08,1.67,2.71.14v-.08l.08-1.75a1.67,1.67,0,0,0,1.07-1.46v-.22l0-.94a.69.69,0,0,0-.67-.69.67.67,0,0,0-.72.62l0,.92H86.8l0-.92a.82.82,0,0,1,.61-.74l0-.65a1.31,1.31,0,0,0-1.29-1.34,1.29,1.29,0,0,0-1.41,1.19l-.11,2.36,0,.91h-.2l.06-1.32a.63.63,0,0,0-.3-.1A.6.6,0,0,0,83.55,104.69Z" transform="translate(-38.66 -28.43)"/></g></svg>