<svg xmlns="http://www.w3.org/2000/svg" xmlns:xlink="http://www.w3.org/1999/xlink" viewBox="0 0 487.77 473.38"><defs><style>.cls-1,.cls-4{fill:#1d1d1b;}.cls-1{stroke:#1d1d1b;stroke-miterlimit:10;}.cls-2{fill:#f6f6f6;}.cls-3{fill:url(#Degradado_sin_nombre_32);}</style><linearGradient id="Degradado_sin_nombre_32" x1="314.26" y1="404.81" x2="314.26" y2="57.16" gradientUnits="userSpaceOnUse"><stop offset="0" stop-color="#ffed00" stop-opacity="0.88"/><stop offset="0.15" stop-color="#fee802" stop-opacity="0.87"/><stop offset="0.36" stop-color="#fcd908" stop-opacity="0.84"/><stop offset="0.6" stop-color="#f8c212" stop-opacity="0.8"/><stop offset="0.69" stop-color="#f5ae14" stop-opacity="0.83"/><stop offset="0.87" stop-color="#ef7918" stop-opacity="0.89"/><stop offset="1" stop-color="#e94e1b" stop-opacity="0.95"/></linearGradient></defs><g id="Capa_1" data-name="Capa 1"><ellipse class="cls-1" cx="243.89" cy="236.69" rx="243.39" ry="236.19"/><path class="cls-2" d="M493.39,231c0,95.26-80.2,172.49-179.13,172.49-53.2,0-101-22.34-133.8-57.81C152.27,315.15,135.14,275,135.14,231c0-95.26,80.2-172.49,179.12-172.49S493.39,135.69,493.39,231Z" transform="translate(-6.11 -13.31)"/></g><g id="Capa_2" data-name="Capa 2"><path class="cls-3" d="M493.39,231c0,96-80.2,173.83-179.13,173.83a181.09,181.09,0,0,1-133.8-58.27A170.27,170.27,0,0,1,135.14,231c0-96,80.2-173.82,179.12-173.82S493.39,135,493.39,231Z" transform="translate(-6.11 -13.31)"/><polygon class="cls-4" points="247.92 350.39 194.39 388.26 337.65 407.36 276.6 325.04 247.92 350.39"/><polyline class="cls-4" points="277.43 346.83 320.43 301.17 385.45 390.04 310.91 398.52"/></g><g id="Capa_4" data-name="Capa 4"><path class="cls-4" d="M379.22,374.19l0,4.23c0,2.49,2.07,4.79,5.72,5.08l0,8.52,13.84,0v-.41l0-9a8.54,8.54,0,0,0,5.09-7.73v-1.11l0-4.8a3.48,3.48,0,0,0-3.56-3.35,3.43,3.43,0,0,0-3.55,3.33l0,4.71h-.94V369a4.22,4.22,0,0,1,2.91-3.94v-3.32a6.76,6.76,0,0,0-6.94-6.51,6.66,6.66,0,0,0-6.9,6.47l0,12.07v4.66h-1l0-6.78a3.34,3.34,0,0,0-1.58-.41A3,3,0,0,0,379.22,374.19Z" transform="translate(-6.11 -13.31)"/><path class="cls-4" d="M214.53,364.76l-.2,4.23c-.12,2.48,1.83,4.88,5.46,5.35l-.4,8.51,13.83.74c0-.32,0-.42,0-.41l.42-9a8.54,8.54,0,0,0,5.47-7.46l.05-1.11.22-4.8a3.47,3.47,0,0,0-3.39-3.52,3.44,3.44,0,0,0-3.71,3.15l-.22,4.71-.93-.05.22-4.71a4.21,4.21,0,0,1,3.11-3.79l.15-3.32a6.78,6.78,0,0,0-6.6-6.86,6.68,6.68,0,0,0-7.22,6.12l-.56,12.06-.22,4.66-1-.05.32-6.78a3.36,3.36,0,0,0-1.55-.48A3,3,0,0,0,214.53,364.76Z" transform="translate(-6.11 -13.31)"/></g></svg>